<svg id="Logo" xmlns="http://www.w3.org/2000/svg" viewBox="0 0 535 286"><defs><style>.cls-1{fill:#010101;}</style></defs><title>RCP_Logo_Blk</title><path class="cls-1" d="M39.29,4.08c15.4,0,24.18,7.34,24.18,19,0,8.88-7.45,17.34-21.53,19.28v.21l6,2.75L64.59,70.38l7,4.29V76.5H55L37.76,49.17c-2-3.27-4.49-5.51-7.65-5.51H26.54v25.6l4.08,4.39h9.59V76.5H3.79V73.65H12L16,69.26v-58L12,6.94H3.79V4.08ZM26.54,39.58h8.57c8.26,0,16.83-5,16.83-15.1,0-11.12-7.24-16.32-15.81-16.32a34.19,34.19,0,0,0-9.59,1.63Z"/><path class="cls-1" d="M98.16,8.16V36h15.09l6.33-12.24h1.83V52.33h-1.83l-6.33-12.24H98.16V72.42h25l10.91-14.28h1.84L132.33,76.5H75.41V73.65h8.26l4-4.29V11.22l-4-4.28H75.41V4.08h56.1V21.42h-1.83L122.33,8.16Z"/><path class="cls-1" d="M140.83,4.08H174c10.6,0,24.48,2.45,24.48,16.42,0,11-8.06,14.79-16.22,16.53v.2c6.93.41,19,4,19,17.65,0,14.79-12.55,21.62-30,21.62h-30.4V73.65h8.27l4-4.29V11.22l-4-4.28h-8.27Zm30.4,32.34c9,0,15.61-4.19,15.61-15.2,0-9.29-6-13.06-14.18-13.06a23.55,23.55,0,0,0-9.08,1.63V36.42ZM188.78,55.8c0-10.82-7.86-15.3-17.55-15.3h-7.65v30a18.09,18.09,0,0,0,9,1.93C184,72.42,188.78,66.61,188.78,55.8Z"/><path class="cls-1" d="M230.53,8.16V36h15.1L252,23.77h1.84V52.33H252l-6.32-12.24h-15.1V72.42h25l10.92-14.28h1.84L264.7,76.5H207.79V73.65h8.26l4-4.29V11.22l-4-4.28h-8.26V4.08h56.1V21.42h-1.84L254.71,8.16Z"/><path class="cls-1" d="M332.35,6.94l2.55-3.78H338v22H334.9l-.82-1.64c-4.38-8.67-10.09-17-23.76-17-14.69.3-24.38,12.75-24.38,31.21C285.94,54.57,298,69,314.7,69c10.1,0,17.34-5.1,22.65-13.77l2.85,1c-3.57,8.05-13.05,22-29.37,21.62-21.42,0-34.48-16.83-34.48-37.44,0-20.91,14-37.64,35.5-37.64C321.54,2.75,328.07,4.9,332.35,6.94Z"/><path class="cls-1" d="M403.39,6.94l2.55-3.78H409v22h-3.06l-.82-1.64c-4.38-8.67-10.1-17-23.77-17C366.67,6.83,357,19.28,357,37.74,357,54.57,369,69,385.74,69c10.1,0,17.34-5.1,22.65-13.77l2.85,1c-3.57,8.05-13.05,22-29.37,21.62-21.43,0-34.48-16.83-34.48-37.44,0-20.91,14-37.64,35.5-37.64C392.58,2.75,399.1,4.9,403.39,6.94Z"/><path class="cls-1" d="M458.59,52.94H431.76l-5.4,14.38,3.57,6.33h8.36V76.5H415.24V74.67L421,67.32,442.88,12l-2.24-6.12L447.78,0h1l28.05,69.36,5.51,5.31V76.5H454.82V73.65h7l3.06-4.29Zm-25.3-4.08h23.77L445.13,17.75Z"/><path class="cls-1" d="M56,108.94l2.55-3.78h3.06v22H58.55l-.82-1.64c-4.38-8.67-10.09-17-23.76-17-14.69.3-24.38,12.75-24.38,31.21,0,16.83,12,31.22,28.76,31.22,10.1,0,17.34-5.1,22.65-13.77l2.86,1c-3.57,8-13.06,22-29.38,21.62C13.06,179.83,0,163,0,142.39c0-20.91,14-37.64,35.5-37.64C45.19,104.75,51.72,106.9,56,108.94Z"/><path class="cls-1" d="M111.3,154.94H84.48l-5.41,14.38,3.57,6.33H91v2.85H68v-1.83l5.72-7.35L95.6,114l-2.25-6.12,7.14-5.92h1l28.05,69.36,5.51,5.31v1.83H107.53v-2.85h7l3.06-4.29ZM86,150.86h23.76L97.84,119.75Z"/><path class="cls-1" d="M196.59,178.5v-2.85h6.33l4.18-4.29V121.89h-.2l-23.77,57.63h-2.45l-24.79-57.63h-.2v47.43l4.79,6.33h8.37v2.85H138.76v-2.85h8.16l4.08-6.33v-56.1l-2.25-4.28h-10v-2.86h22.13l24.69,56.21h.2l22.54-56.21h21.53v2.86h-10.2l-2,3.26v59.16l4.08,4.29h8.16v2.85Z"/><path class="cls-1" d="M278.71,154.94H251.88l-5.4,14.38,3.57,6.33h8.36v2.85H235.36v-1.83l5.71-7.35L263,114l-2.24-6.12L267.9,102h1L297,171.36l5.51,5.31v1.83H274.94v-2.85h7l3.06-4.29Zm-25.3-4.08h23.77l-11.93-31.11Z"/><path class="cls-1" d="M361.24,108.94l2.55-3.78h3.06v22h-3.06l-.81-1.64c-4.39-8.67-10.1-17-23.77-17-14.69.3-24.38,12.75-24.38,31.21,0,16.83,12,31.22,28.76,31.22,10.1,0,17.35-5.1,22.65-13.77l2.86,1c-3.57,8-13.06,22-29.38,21.62-21.42,0-34.48-16.83-34.48-37.44,0-20.91,14-37.64,35.5-37.64C350.43,104.75,357,106.9,361.24,108.94Z"/><path class="cls-1" d="M441.11,171.36l3.87,4.29h8.37v2.85h-35.3v-2.85h8.57l4-4.29V141.48H399.49v29.88l3.87,4.29H412v2.85h-35.3v-2.85H385l4-4.29V113.22l-4-4.28h-8.26v-2.86H412v2.86h-8.68l-3.87,4.28V137.4H430.6V113.22l-4-4.28h-8.57v-2.86h35.3v2.86H445l-3.87,4.28Z"/><path class="cls-1" d="M530.09,142.19c0,20.91-14,37.64-35.5,37.64s-35.5-16.83-35.5-37.44c0-20.91,14-37.64,35.5-37.64S530.09,121.58,530.09,142.19Zm-11.63,7.45c0-20.71-9.59-40.5-27.24-40.5-10.91,0-20.5,10.2-20.5,25.81,0,21.32,10.3,40,27.95,40C509.59,174.93,518.46,165.24,518.46,149.64Z"/><path class="cls-1" d="M26.68,273.36l4,4.29H41.88v2.85H3.93v-2.85H12l4.18-4.29V215.22L12,210.94H3.93v-2.86H35c16.43,0,26.83,4.49,26.83,18.67,0,12.34-11.73,21.21-26.32,21.21H30.86v-3.57h3.88c9.89,0,15.6-5.5,15.6-16.62,0-10.41-7.24-15.61-14.58-15.61a23.86,23.86,0,0,0-9.08,1.74Z"/><path class="cls-1" d="M102.4,208.08c15.4,0,24.17,7.35,24.17,19,0,8.88-7.45,17.34-21.52,19.28v.21l6,2.75,16.62,25.09,7,4.29v1.83H118.1l-17.23-27.33c-2-3.27-4.49-5.51-7.65-5.51H89.64v25.6l4.09,4.39h9.58v2.85H66.9v-2.85h8.16l4.08-4.39v-58l-4.08-4.28H66.9v-2.86Zm-12.76,35.5h8.57c8.27,0,16.83-5,16.83-15.1,0-11.12-7.24-16.32-15.81-16.32a34.28,34.28,0,0,0-9.59,1.63Z"/><path class="cls-1" d="M161.66,212.16V240h15.1l6.32-12.24h1.84v28.56h-1.84l-6.32-12.24h-15.1v32.33h25l10.92-14.28h1.83l-3.57,18.36H138.91v-2.85h8.27l4-4.29V215.22l-4-4.28h-8.27v-2.86H195v17.34h-1.84l-7.34-13.26Z"/><path class="cls-1" d="M219.68,221.75c0,18.77,37.23,13.57,37.23,39.88,0,12.45-10.1,20.2-21.22,20.2-9.18,0-14.38-2.55-18.36-4.18l-3.06,3.77h-3.06V257.35h3.06l.41.92c4.49,10.1,12.54,18.15,23,18.15,8.67,0,11.83-4.48,11.83-10.3,0-19.07-38-13.67-38-39.88,0-10.41,9.07-19.49,22.74-19.49a31,31,0,0,1,14.39,3.37l1.63-3h3v21.42h-3.06l-.92-2.44c-3.57-9.39-9.39-15.2-17.14-15.2C223.35,210.94,219.68,216.24,219.68,221.75Z"/><path class="cls-1" d="M287.53,212.16V240h15.1L309,227.77h1.84v28.56H309l-6.32-12.24h-15.1v32.33h25l10.92-14.28h1.83L321.7,280.5H264.78v-2.85h8.27l4-4.29V215.22l-4-4.28h-8.27v-2.86h56.11v17.34h-1.84l-7.34-13.26Z"/><path class="cls-1" d="M399.24,210.94l-4.39,6.32v64.26h-3.57L349,223h-.21v48.25l4.8,6.43h7.24v2.85h-29v-2.85h8.06l4.18-6.43V217.36l-4.69-6.42h-7.55v-2.86H352L390,259.49h.21V217.26l-4.8-6.32h-7.24v-2.86h29v2.86Z"/><path class="cls-1" d="M472.18,228.48h-1.84L463,212.16H447.59v61.1l4.08,4.39h8.88v2.85H424.13v-2.85h8.77l4.19-4.39v-61.1H421.68l-7.34,16.32H412.5V206.75h2l3.57,1.33h48.35l3.68-1.33h2Z"/><path class="cls-1" d="M491,221.75c0,18.77,37.23,13.57,37.23,39.88,0,12.45-10.1,20.2-21.22,20.2-9.18,0-14.38-2.55-18.36-4.18l-3.06,3.77h-3.06V257.35h3.06l.41.92c4.49,10.1,12.55,18.15,23.05,18.15,8.67,0,11.83-4.48,11.83-10.3,0-19.07-38-13.67-38-39.88,0-10.41,9.08-19.49,22.74-19.49a31,31,0,0,1,14.39,3.37l1.63-3h3v21.42h-3.06l-.92-2.44c-3.57-9.39-9.39-15.2-17.14-15.2C494.62,210.94,491,216.24,491,221.75Z"/></svg>